<svg width="12" height="12" viewBox="0 0 12 12" fill="none" xmlns="http://www.w3.org/2000/svg">
<path fill-rule="evenodd" clip-rule="evenodd" d="M6.36 5.7018L8.6946 8.0364L8.1858 8.5458L5.64 6V2.4H6.36V5.7018ZM6 12C2.6862 12 0 9.3138 0 6C0 2.6862 2.6862 0 6 0C9.3138 0 12 2.6862 12 6C12 9.3138 9.3138 12 6 12ZM6 11.28C7.40034 11.28 8.74333 10.7237 9.73352 9.73352C10.7237 8.74333 11.28 7.40034 11.28 6C11.28 4.59966 10.7237 3.25667 9.73352 2.26648C8.74333 1.27628 7.40034 0.72 6 0.72C4.59966 0.72 3.25667 1.27628 2.26648 2.26648C1.27628 3.25667 0.72 4.59966 0.72 6C0.72 7.40034 1.27628 8.74333 2.26648 9.73352C3.25667 10.7237 4.59966 11.28 6 11.28Z" fill="white"/>
</svg>
