<svg width="250" height="100" viewBox="0 0 250 100" fill="none" xmlns="http://www.w3.org/2000/svg">
<path d="M20.538 54.8256H27.3839V13.7065H34.2299V6.85331H27.3839V0.000125713H20.538V6.85331H13.692V13.7065H20.538V54.8256ZM6.84598 20.5597V13.7065H13.692V20.5597H6.84598ZM6.84598 20.5597V27.4128H0V20.5597H6.84598ZM41.0759 20.5597V13.7065H34.2299V20.5597H41.0759ZM41.0759 20.5597V27.4128H47.9219V20.5597H41.0759Z" fill="white"/>
<path d="M103.305 1.66929C116.158 1.66929 123.644 9.07495 123.644 21.4883V22.1936C123.644 34.5363 116.158 42.0831 103.305 42.0831H85.1553V53.1563H56.0596V1.66929H103.305ZM91.4406 25.579C93.2767 25.579 94.5479 24.3095 94.5479 22.6167V22.2641C94.5479 20.5714 93.2767 19.3018 91.4406 19.3018H85.1553V25.579H91.4406Z" fill="white"/>
<path d="M146.695 53.1563C133.842 53.1563 126.356 45.7506 126.356 33.3373V32.632C126.356 20.2892 133.842 12.7425 146.695 12.7425H164.845V1.66929H193.94V53.1563H146.695ZM158.559 29.2466C156.723 29.2466 155.452 30.5161 155.452 32.2088V32.5615C155.452 34.2542 156.723 35.5238 158.559 35.5238H164.845V29.2466H158.559Z" fill="white" fill-opacity="0.3"/>
<path d="M229.462 5.99124e-07L222.616 0V41.1191H215.77V47.9723H222.616V54.8254H229.462V47.9723H236.308V41.1191H229.462V5.99124e-07ZM243.154 34.2659V41.1191H236.308V34.2659H243.154ZM243.154 34.2659V27.4127H250V34.2659H243.154ZM208.924 34.2659V41.1191H215.77V34.2659H208.924ZM208.924 34.2659V27.4127L202.078 27.4127V34.2659L208.924 34.2659Z" fill="white" fill-opacity="0.3"/>
<path d="M52.7292 95.5566V79.7579H58.0619C59.3 79.7579 60.3121 79.9816 61.0981 80.429C61.8893 80.8713 62.4749 81.4704 62.8551 82.2264C63.2353 82.9824 63.4254 83.8258 63.4254 84.7567C63.4254 85.6875 63.2353 86.5335 62.8551 87.2947C62.4801 88.0558 61.8995 88.6627 61.1135 89.1152C60.3275 89.5626 59.3205 89.7864 58.0927 89.7864H54.2705V88.0892H58.0311C58.8787 88.0892 59.5594 87.9427 60.0732 87.6495C60.5869 87.3564 60.9594 86.9604 61.1906 86.4615C61.4269 85.9575 61.5451 85.3892 61.5451 84.7567C61.5451 84.1241 61.4269 83.5584 61.1906 83.0595C60.9594 82.5607 60.5844 82.1698 60.0655 81.887C59.5466 81.599 58.8582 81.455 58.0002 81.455H54.6404V95.5566H52.7292Z" fill="white"/>
<path d="M73.7169 90.7121V83.7075H75.5355V95.5566H73.7169V93.5509H73.5936C73.3162 94.1526 72.8846 94.6643 72.299 95.086C71.7133 95.5026 70.9735 95.7109 70.0796 95.7109C69.3398 95.7109 68.6822 95.5489 68.1068 95.2249C67.5314 94.8958 67.0793 94.402 66.7505 93.7438C66.4218 93.0803 66.2574 92.2446 66.2574 91.2366V83.7075H68.076V91.1132C68.076 91.9772 68.3175 92.6663 68.8004 93.1806C69.2884 93.6949 69.9101 93.952 70.6653 93.952C71.1174 93.952 71.5772 93.8363 72.0447 93.6049C72.5173 93.3735 72.9129 93.0186 73.2314 92.5403C73.5551 92.0621 73.7169 91.4526 73.7169 90.7121Z" fill="white"/>
<path d="M78.8665 95.5566V83.7075H80.6235V85.559H80.7776C81.0242 84.9264 81.4224 84.4352 81.9721 84.0855C82.5218 83.7307 83.182 83.5533 83.9526 83.5533C84.7335 83.5533 85.3833 83.7307 85.9022 84.0855C86.4262 84.4352 86.8347 84.9264 87.1275 85.559H87.2508C87.5539 84.947 88.0086 84.461 88.6148 84.101C89.221 83.7358 89.9479 83.5533 90.7956 83.5533C91.8539 83.5533 92.7196 83.885 93.3926 84.5484C94.0656 85.2067 94.4021 86.2327 94.4021 87.6264V95.5566H92.5835V87.6264C92.5835 86.7521 92.3446 86.1272 91.8668 85.7518C91.389 85.3764 90.8264 85.1887 90.1791 85.1887C89.3469 85.1887 88.7021 85.4407 88.2449 85.9447C87.7877 86.4435 87.559 87.0761 87.559 87.8424V95.5566H85.7096V87.4412C85.7096 86.7675 85.4912 86.225 85.0546 85.8135C84.6179 85.397 84.0553 85.1887 83.3669 85.1887C82.8943 85.1887 82.4524 85.3147 82.0415 85.5667C81.6356 85.8187 81.3068 86.1684 81.0551 86.6158C80.8085 87.0581 80.6852 87.5698 80.6852 88.1509V95.5566H78.8665Z" fill="white"/>
<path d="M97.7273 100V83.7075H99.4843V85.5898H99.7001C99.8336 85.3841 100.019 85.1218 100.255 84.803C100.496 84.479 100.841 84.191 101.288 83.939C101.74 83.6818 102.351 83.5533 103.122 83.5533C104.118 83.5533 104.997 83.8027 105.757 84.3015C106.517 84.8004 107.111 85.5075 107.537 86.423C107.964 87.3384 108.177 88.4184 108.177 89.6629C108.177 90.9178 107.964 92.0055 107.537 92.926C107.111 93.8415 106.52 94.5512 105.765 95.0552C105.01 95.554 104.139 95.8035 103.152 95.8035C102.392 95.8035 101.783 95.6775 101.326 95.4255C100.869 95.1683 100.517 94.8778 100.27 94.5538C100.024 94.2246 99.8336 93.952 99.7001 93.736H99.5459V100H97.7273ZM99.5151 89.6321C99.5151 90.5269 99.6461 91.3163 99.9081 92.0003C100.17 92.6792 100.553 93.2115 101.056 93.5972C101.56 93.9778 102.176 94.168 102.906 94.168C103.666 94.168 104.301 93.9675 104.809 93.5663C105.323 93.16 105.708 92.6149 105.965 91.9309C106.227 91.2418 106.358 90.4755 106.358 89.6321C106.358 88.7989 106.23 88.0481 105.973 87.3795C105.721 86.7058 105.338 86.1735 104.825 85.7827C104.316 85.3867 103.676 85.1887 102.906 85.1887C102.166 85.1887 101.544 85.3764 101.041 85.7518C100.537 86.1221 100.157 86.6415 99.9004 87.3101C99.6435 87.9735 99.5151 88.7475 99.5151 89.6321Z" fill="white"/>
<path d="M121.863 95.8035C120.794 95.8035 119.857 95.5489 119.05 95.0398C118.249 94.5306 117.622 93.8183 117.17 92.9029C116.723 91.9875 116.499 90.9178 116.499 89.6938C116.499 88.4595 116.723 87.3821 117.17 86.4615C117.622 85.541 118.249 84.8261 119.05 84.317C119.857 83.8078 120.794 83.5533 121.863 83.5533C122.931 83.5533 123.867 83.8078 124.668 84.317C125.475 84.8261 126.101 85.541 126.548 86.4615C127 87.3821 127.226 88.4595 127.226 89.6938C127.226 90.9178 127 91.9875 126.548 92.9029C126.101 93.8183 125.475 94.5306 124.668 95.0398C123.867 95.5489 122.931 95.8035 121.863 95.8035ZM121.863 94.168C122.675 94.168 123.342 93.9598 123.867 93.5432C124.391 93.1266 124.778 92.5789 125.03 91.9001C125.282 91.2212 125.408 90.4858 125.408 89.6938C125.408 88.9018 125.282 88.1638 125.03 87.4798C124.778 86.7958 124.391 86.243 123.867 85.8212C123.342 85.3995 122.675 85.1887 121.863 85.1887C121.051 85.1887 120.383 85.3995 119.859 85.8212C119.335 86.243 118.947 86.7958 118.696 87.4798C118.444 88.1638 118.318 88.9018 118.318 89.6938C118.318 90.4858 118.444 91.2212 118.696 91.9001C118.947 92.5789 119.335 93.1266 119.859 93.5432C120.383 93.9598 121.051 94.168 121.863 94.168Z" fill="white" fill-opacity="0.4"/>
<path d="M130.003 95.5566V83.7075H131.76V85.4972H131.883C132.099 84.911 132.489 84.4352 133.054 84.0701C133.619 83.705 134.256 83.5224 134.965 83.5224C135.099 83.5224 135.266 83.525 135.466 83.5301C135.667 83.5353 135.818 83.543 135.921 83.5533V85.4047C135.859 85.3892 135.718 85.3661 135.497 85.3352C135.281 85.2992 135.053 85.2812 134.811 85.2812C134.236 85.2812 133.722 85.4021 133.27 85.6438C132.823 85.8804 132.468 86.2095 132.206 86.6312C131.95 87.0478 131.821 87.5235 131.821 88.0584V95.5566H130.003Z" fill="white" fill-opacity="0.4"/>
<path d="M149.297 95.5566H144.426V79.7579H149.513C151.043 79.7579 152.354 80.0741 153.443 80.7067C154.532 81.3341 155.367 82.2367 155.947 83.4144C156.528 84.587 156.818 85.991 156.818 87.6264C156.818 89.2721 156.525 90.6889 155.939 91.8769C155.354 93.0598 154.501 93.97 153.381 94.6078C152.261 95.2403 150.9 95.5566 149.297 95.5566ZM146.338 93.8595H149.173C150.478 93.8595 151.56 93.6075 152.418 93.1035C153.276 92.5995 153.915 91.8821 154.337 90.9512C154.758 90.0204 154.968 88.9121 154.968 87.6264C154.968 86.351 154.76 85.253 154.344 84.3324C153.928 83.4067 153.307 82.697 152.479 82.2033C151.652 81.7044 150.622 81.455 149.389 81.455H146.338V93.8595Z" fill="white" fill-opacity="0.4"/>
<path d="M167.237 90.7121V83.7075H169.055V95.5566H167.237V93.5509H167.113C166.836 94.1526 166.404 94.6643 165.819 95.086C165.233 95.5026 164.493 95.7109 163.599 95.7109C162.86 95.7109 162.202 95.5489 161.627 95.2249C161.051 94.8958 160.599 94.402 160.27 93.7438C159.942 93.0803 159.777 92.2446 159.777 91.2366V83.7075H161.596V91.1132C161.596 91.9772 161.837 92.6663 162.32 93.1806C162.808 93.6949 163.43 93.952 164.185 93.952C164.637 93.952 165.097 93.8363 165.564 93.6049C166.037 93.3735 166.433 93.0186 166.751 92.5403C167.075 92.0621 167.237 91.4526 167.237 90.7121Z" fill="white" fill-opacity="0.4"/>
<path d="M172.386 95.5566V83.7075H174.143V85.559H174.297C174.544 84.9264 174.942 84.4352 175.492 84.0855C176.042 83.7307 176.702 83.5533 177.472 83.5533C178.253 83.5533 178.903 83.7307 179.422 84.0855C179.946 84.4352 180.354 84.9264 180.647 85.559H180.771C181.074 84.947 181.528 84.461 182.135 84.101C182.741 83.7358 183.468 83.5533 184.315 83.5533C185.374 83.5533 186.239 83.885 186.912 84.5484C187.585 85.2067 187.922 86.2327 187.922 87.6264V95.5566H186.103V87.6264C186.103 86.7521 185.864 86.1272 185.387 85.7518C184.909 85.3764 184.346 85.1887 183.699 85.1887C182.867 85.1887 182.222 85.4407 181.765 85.9447C181.307 86.4435 181.079 87.0761 181.079 87.8424V95.5566H179.229V87.4412C179.229 86.7675 179.011 86.225 178.574 85.8135C178.138 85.397 177.575 85.1887 176.887 85.1887C176.414 85.1887 175.972 85.3147 175.561 85.5667C175.155 85.8187 174.827 86.1684 174.575 86.6158C174.328 87.0581 174.205 87.5698 174.205 88.1509V95.5566H172.386Z" fill="white" fill-opacity="0.4"/>
<path d="M191.247 100V83.7075H193.004V85.5898H193.22C193.353 85.3841 193.538 85.1218 193.775 84.803C194.016 84.479 194.36 84.191 194.807 83.939C195.259 83.6818 195.871 83.5533 196.641 83.5533C197.638 83.5533 198.516 83.8027 199.277 84.3015C200.037 84.8004 200.631 85.5075 201.057 86.423C201.483 87.3384 201.697 88.4184 201.697 89.6629C201.697 90.9178 201.483 92.0055 201.057 92.926C200.631 93.8415 200.04 94.5512 199.285 95.0552C198.529 95.554 197.659 95.8035 196.672 95.8035C195.912 95.8035 195.303 95.6775 194.846 95.4255C194.389 95.1683 194.037 94.8778 193.79 94.5538C193.543 94.2246 193.353 93.952 193.22 93.736H193.066V100H191.247ZM193.035 89.6321C193.035 90.5269 193.166 91.3163 193.428 92.0003C193.69 92.6792 194.073 93.2115 194.576 93.5972C195.08 93.9778 195.696 94.168 196.426 94.168C197.186 94.168 197.82 93.9675 198.329 93.5663C198.843 93.16 199.228 92.6149 199.485 91.9309C199.747 91.2418 199.878 90.4755 199.878 89.6321C199.878 88.7989 199.749 88.0481 199.493 87.3795C199.241 86.7058 198.858 86.1735 198.344 85.7827C197.836 85.3867 197.196 85.1887 196.426 85.1887C195.686 85.1887 195.064 85.3764 194.561 85.7518C194.057 86.1221 193.677 86.6415 193.42 87.3101C193.163 87.9735 193.035 88.7475 193.035 89.6321Z" fill="white" fill-opacity="0.4"/>
</svg>
