<svg width="12" height="17" viewBox="0 0 12 17" fill="none" xmlns="http://www.w3.org/2000/svg">
<path d="M0 0.5H12M0 16.5H12M1.66667 16.5V12.3261L3.57067 11.1337C4.00656 10.8609 4.3673 10.4749 4.61776 10.0133C4.86822 9.55178 4.99986 9.03041 4.99986 8.5C4.99986 7.96959 4.86822 7.44822 4.61776 6.98667C4.3673 6.52512 4.00656 6.13912 3.57067 5.86626L1.66667 4.67391V0.5M10.3333 0.5V4.67391L8.42933 5.86626C7.99361 6.13925 7.63303 6.5253 7.38269 6.98683C7.13235 7.44837 7.00077 7.96967 7.00077 8.5C7.00077 9.03033 7.13235 9.55163 7.38269 10.0132C7.63303 10.4747 7.99361 10.8607 8.42933 11.1337L10.3333 12.3261V16.5" stroke="white"/>
</svg>
