<svg width="9" height="12" viewBox="0 0 9 12" fill="none" xmlns="http://www.w3.org/2000/svg">
<path d="M9 3C9 4.65686 6.9849 6 4.5 6C2.0151 6 1.22152e-07 4.65686 1.22152e-07 3C1.22152e-07 1.34314 2.0151 0 4.5 0C6.9849 0 9 1.34314 9 3ZM8.8659 5.27057C7.884 6.23143 6.2946 6.85714 4.5 6.85714C2.7054 6.85714 1.116 6.23143 0.1341 5.27057C0.0452914 5.50446 -8.59271e-05 5.75129 1.22152e-07 6C1.22152e-07 7.65686 2.0151 9 4.5 9C6.9849 9 9 7.65686 9 6C8.9988 5.74743 8.9541 5.50429 8.8659 5.27057ZM8.8659 8.27057C7.884 9.23143 6.2946 9.85714 4.5 9.85714C2.7054 9.85714 1.116 9.23143 0.1341 8.27057C0.0452914 8.50446 -8.59271e-05 8.75129 1.22152e-07 9C1.22152e-07 10.6569 2.0151 12 4.5 12C6.9849 12 9 10.6569 9 9C8.9988 8.74743 8.9541 8.50429 8.8659 8.27057Z" fill="white" fill-opacity="0.2"/>
</svg>
