<svg width="18" height="20" viewBox="0 0 18 20" fill="none" xmlns="http://www.w3.org/2000/svg">
<path d="M3.59961 9.39677C3.59961 6.67077 3.59961 5.30777 4.44261 4.46077C5.28661 3.61377 6.64361 3.61377 9.35961 3.61377H12.2396C14.9546 3.61377 16.3126 3.61377 17.1556 4.46077C17.9996 5.30777 17.9996 6.67077 17.9996 9.39677V14.2168C17.9996 16.9428 17.9996 18.3058 17.1556 19.1528C16.3126 19.9998 14.9546 19.9998 12.2396 19.9998H9.35961C6.64361 19.9998 5.28661 19.9998 4.44261 19.1528C3.59861 18.3058 3.59961 16.9428 3.59961 14.2168V9.39677Z" fill="black"/>
<path opacity="0.5" d="M1.172 1.172C-1.19209e-07 2.343 0 4.229 0 8V10C0 13.771 -1.19209e-07 15.657 1.172 16.828C1.789 17.446 2.605 17.738 3.792 17.876C3.6 17.036 3.6 15.88 3.6 14.216V9.397C3.6 6.671 3.6 5.308 4.443 4.461C5.287 3.614 6.644 3.614 9.36 3.614H12.24C13.892 3.614 15.04 3.614 15.878 3.804C15.74 2.611 15.448 1.792 14.828 1.172C13.657 -1.19209e-07 11.771 0 8 0C4.229 0 2.343 -1.19209e-07 1.172 1.172Z" fill="black"/>
</svg>
