<svg width="18" height="18" viewBox="0 0 18 18" fill="none" xmlns="http://www.w3.org/2000/svg">
<path d="M2.81837 0H8.45512C9.20259 0 9.91946 0.299435 10.448 0.832433C10.9766 1.36543 11.2735 2.08833 11.2735 2.84211V6.63158H10.334V2.84211C10.334 2.33959 10.1361 1.85766 9.78371 1.50232C9.43134 1.14699 8.95343 0.947368 8.45512 0.947368H2.81837C2.32005 0.947368 1.84214 1.14699 1.48978 1.50232C1.13741 1.85766 0.939457 2.33959 0.939457 2.84211V15.1579C0.939457 15.6604 1.13741 16.1423 1.48978 16.4977C1.84214 16.853 2.32005 17.0526 2.81837 17.0526H8.45512C8.95343 17.0526 9.43134 16.853 9.78371 16.4977C10.1361 16.1423 10.334 15.6604 10.334 15.1579V11.3684H11.2735V15.1579C11.2735 15.9117 10.9766 16.6346 10.448 17.1676C9.91946 17.7006 9.20259 18 8.45512 18H2.81837C2.07089 18 1.35403 17.7006 0.825482 17.1676C0.296935 16.6346 0 15.9117 0 15.1579V2.84211C0 2.08833 0.296935 1.36543 0.825482 0.832433C1.35403 0.299435 2.07089 0 2.81837 0ZM5.63674 8.52632H16.2056L13.1524 5.44737L13.7724 4.73684L18 9L13.7724 13.2632L13.1524 12.5526L16.2056 9.47368H5.63674V8.52632Z" fill="white"/>
</svg>
