<svg width="18" height="18" viewBox="0 0 18 18" fill="none" xmlns="http://www.w3.org/2000/svg">
<path d="M9.72 13.68C9.72 13.8224 9.67778 13.9616 9.59866 14.08C9.51955 14.1984 9.4071 14.2907 9.27553 14.3452C9.14397 14.3997 8.9992 14.4139 8.85954 14.3862C8.71987 14.3584 8.59158 14.2898 8.49089 14.1891C8.39019 14.0884 8.32162 13.9601 8.29384 13.8205C8.26606 13.6808 8.28031 13.536 8.33481 13.4045C8.3893 13.2729 8.48159 13.1605 8.59999 13.0813C8.7184 13.0022 8.8576 12.96 9 12.96C9.19096 12.96 9.37409 13.0359 9.50912 13.1709C9.64415 13.3059 9.72 13.489 9.72 13.68ZM9 4.32C7.2135 4.32 5.76 5.6124 5.76 7.2V7.56C5.76 7.65548 5.79793 7.74704 5.86544 7.81456C5.93296 7.88207 6.02452 7.92 6.12 7.92C6.21548 7.92 6.30705 7.88207 6.37456 7.81456C6.44207 7.74704 6.48 7.65548 6.48 7.56V7.2C6.48 6.0093 7.6104 5.04 9 5.04C10.3896 5.04 11.52 6.0093 11.52 7.2C11.52 8.3907 10.3896 9.36 9 9.36C8.90452 9.36 8.81296 9.39793 8.74544 9.46544C8.67793 9.53295 8.64 9.62452 8.64 9.72V10.44C8.64 10.5355 8.67793 10.627 8.74544 10.6946C8.81296 10.7621 8.90452 10.8 9 10.8C9.09548 10.8 9.18705 10.7621 9.25456 10.6946C9.32207 10.627 9.36 10.5355 9.36 10.44V10.062C10.98 9.9027 12.24 8.6796 12.24 7.2C12.24 5.6124 10.7865 4.32 9 4.32ZM18 9C18 10.78 17.4722 12.5201 16.4832 14.0001C15.4943 15.4802 14.0887 16.6337 12.4442 17.3149C10.7996 17.9961 8.99002 18.1743 7.24419 17.8271C5.49836 17.4798 3.89471 16.6226 2.63604 15.364C1.37737 14.1053 0.520203 12.5016 0.172937 10.7558C-0.17433 9.00998 0.00389942 7.20038 0.685088 5.55585C1.36628 3.91131 2.51983 2.50571 3.99987 1.51677C5.47991 0.527841 7.21997 0 9 0C11.3861 0.00262044 13.6738 0.951673 15.3611 2.63893C17.0483 4.32619 17.9974 6.61385 18 9ZM17.28 9C17.28 7.36237 16.7944 5.76152 15.8846 4.39988C14.9748 3.03824 13.6816 1.97697 12.1686 1.35028C10.6556 0.723584 8.99082 0.559612 7.38465 0.879098C5.77849 1.19858 4.30314 1.98718 3.14516 3.14515C1.98718 4.30313 1.19859 5.77849 0.879102 7.38465C0.559616 8.99081 0.723588 10.6556 1.35028 12.1686C1.97697 13.6816 3.03824 14.9747 4.39988 15.8846C5.76152 16.7944 7.36237 17.28 9 17.28C11.1953 17.2776 13.2999 16.4045 14.8522 14.8522C16.4045 13.2999 17.2776 11.1953 17.28 9Z" fill="white"/>
</svg>
