<svg width="216" height="213" viewBox="0 0 216 213" fill="none" xmlns="http://www.w3.org/2000/svg">
<g style="mix-blend-mode:luminosity">
<path d="M163.825 13.5581C171.107 23.6849 162.87 40.3125 173.597 47.8738C184.038 55.2343 196.638 42.859 206.472 49.186C221.061 58.5717 218.877 102.239 197.983 129.575C191.7 137.796 186.411 141.024 184.152 150.271C179.3 170.126 197.214 181.719 193.932 191.548C186.543 213.68 69.5118 233.409 21.7729 167.627C-0.523074 136.905 -4.28336 92.2433 14.9849 58.0916C49.8026 -3.62 147.485 -9.1647 163.825 13.5581Z" fill="#F4F7FA"/>
<g opacity="0.3">
<path d="M137.531 9.67058L36.4996 6.58946C28.6726 6.35077 22.1799 13.3058 22.0484 22.1253C21.917 30.9449 28.1979 38.197 36.0265 38.3224L137.08 39.9413C144.155 40.0546 149.955 33.411 150.079 25.103C150.203 16.795 144.604 9.88619 137.531 9.67058Z" fill="url(#paint0_linear_382_23940)"/>
<path d="M180.844 25.7436C180.723 33.8873 175.12 40.4005 168.289 40.2906C161.413 40.1799 155.904 33.4079 156.027 25.1655C156.15 16.9231 161.856 10.4123 168.731 10.6219C175.561 10.8302 180.965 17.5999 180.844 25.7436Z" fill="url(#paint1_linear_382_23940)"/>
</g>
<g opacity="0.5">
<path d="M176.804 47.7382L100.751 46.7852C94.927 46.7122 90.1008 52.1296 90.0001 58.8854C89.8994 65.6413 94.5632 71.1234 100.388 71.1297L176.454 71.2128C181.841 71.2188 186.265 65.9934 186.362 59.5418C186.458 53.0902 182.19 47.8057 176.804 47.7382Z" fill="url(#paint2_linear_382_23940)"/>
<path d="M209.913 59.6434C209.818 65.9885 205.516 71.1272 200.28 71.1212C195.017 71.1152 190.807 65.9182 190.902 59.5135C190.998 53.1087 195.362 47.9703 200.624 48.0363C205.86 48.1018 210.007 53.2985 209.913 59.6434Z" fill="url(#paint3_linear_382_23940)"/>
</g>
<path d="M68.6364 152.657C67.6637 155.993 65.6718 160.699 63.5958 166.095L120.653 159.43C110.043 144.443 96.6908 129.288 101.875 97.0031C104.308 81.8524 114.048 53.7671 103.139 39.6521C90.712 23.5711 77.84 35.3509 70.2786 22.3547C58.4602 2.042 35.6131 -8.21077 18.3869 8.00919C1.38539 24.0176 12.5934 63.0654 50.3275 99.0283C74.456 127.874 73.7158 135.241 68.6364 152.657Z" fill="url(#paint4_linear_382_23940)"/>
<mask id="mask0_382_23940" style="mask-type:luminance" maskUnits="userSpaceOnUse" x="10" y="0" width="111" height="167">
<path d="M68.6364 152.657C67.6637 155.993 65.6718 160.699 63.5958 166.095L120.653 159.43C110.043 144.443 96.6908 129.288 101.875 97.0031C104.308 81.8524 114.048 53.7671 103.139 39.6521C90.712 23.5711 77.84 35.3509 70.2786 22.3547C58.4602 2.042 35.6131 -8.21077 18.3869 8.00919C1.38539 24.0176 12.5934 63.0654 50.3275 99.0283C74.456 127.874 73.7158 135.241 68.6364 152.657Z" fill="white"/>
</mask>
<g mask="url(#mask0_382_23940)">
<g opacity="0.6">
<path d="M92.7061 159.366C91.177 152.094 89.3637 145.313 87.4438 138.133L86.8041 135.739C85.6652 132.338 84.6352 128.954 83.6391 125.682C81.3899 118.293 79.2653 111.313 75.9864 104.175C75.8446 103.745 75.7283 103.322 75.6054 102.873C75.1661 101.271 74.7116 99.6154 73.3485 98.2783L73.3093 98.2182C58.9101 59.6841 36.2675 23.4552 6.01074 -9.46193L6.25692 -9.68506C36.5334 23.2535 59.1942 59.5077 73.6091 98.0688C75.0159 99.4644 75.4997 101.229 75.9268 102.786C76.0488 103.231 76.1639 103.65 76.2966 104.055C79.5777 111.196 81.7054 118.186 83.958 125.586C84.9534 128.856 85.9828 132.238 87.1234 135.644L87.7658 138.048C89.687 145.232 91.5013 152.018 93.0322 159.298L92.7061 159.366Z" fill="#FCFDFE"/>
<path d="M82.916 124.406C77.539 105.802 81.4986 80.9605 85.7671 63.3964C90.3898 44.3755 96.3598 29.5558 96.4197 29.4084L96.7288 29.532C96.6691 29.6793 90.7066 44.4804 86.0898 63.4787C81.8314 81.0025 77.8797 105.782 83.2363 124.315L82.916 124.406Z" fill="#FCFDFE"/>
<path d="M48.4377 46.5006C41.6244 27.0755 39.0027 5.12183 38.1412 -2.09234C37.9763 -3.47218 37.8674 -4.38382 37.8159 -4.55289L38.1348 -4.64893C38.1926 -4.45973 38.2798 -3.7404 38.4721 -2.13113C39.3325 5.07415 41.9511 27.0007 48.7523 46.3916L48.4377 46.5006Z" fill="#FCFDFE"/>
<path d="M64.1313 76.2897C52.8098 60.9999 13.5413 55.1938 13.146 55.1368L13.1937 54.8093C13.5904 54.8663 52.9965 60.6935 64.3998 76.0937L64.1313 76.2897Z" fill="#FCFDFE"/>
</g>
</g>
<path d="M51.3395 90.5362C54.7294 116.539 66.3571 106.482 78.3199 107.69C94.0645 125.457 97.456 143.251 79.2006 161.093L56.4218 160.38C48.0707 160.967 38.0264 159.584 37.2758 148.534C36.4269 136.036 38.4507 127.799 23.6102 123.346C8.76981 118.894 1.38695 108.468 5.60482 95.1359C10.0436 81.1059 -6.19483 64.7896 3.0612 54.6555C19.1895 36.9973 47.8096 63.4591 51.3395 90.5362Z" fill="url(#paint5_linear_382_23940)"/>
<mask id="mask1_382_23940" style="mask-type:luminance" maskUnits="userSpaceOnUse" x="0" y="48" width="92" height="114">
<path d="M51.3395 90.5362C54.7294 116.539 66.3571 106.482 78.3199 107.69C94.0645 125.457 97.456 143.251 79.2006 161.093L56.4218 160.38C48.0707 160.967 38.0264 159.584 37.2758 148.534C36.4269 136.036 38.4507 127.799 23.6102 123.346C8.76981 118.894 1.38695 108.468 5.60482 95.1359C10.0436 81.1059 -6.19483 64.7896 3.0612 54.6555C19.1895 36.9973 47.8096 63.4591 51.3395 90.5362Z" fill="white"/>
</mask>
<g mask="url(#mask1_382_23940)">
<g opacity="0.6">
<path d="M62.4133 136.485C51.8651 127.421 42.4318 117.08 34.3751 105.752C26.2493 94.3251 19.6326 82.0447 14.7095 69.251C11.8866 61.9151 9.61359 54.3704 7.9541 46.8268L8.28702 46.7546C9.94323 54.2814 12.2111 61.8097 15.0281 69.1302C19.9409 81.8972 26.5439 94.1527 34.6537 105.556C42.6944 116.863 52.1092 127.182 62.6363 136.229L62.4133 136.485Z" fill="#FCFDFE"/>
<path d="M40.0129 153.601L39.8237 153.319C43.7322 150.73 48.4422 148.516 53.8231 146.74C56.3871 145.894 58.9554 145.233 61.4568 144.776L61.5187 145.109C59.0327 145.563 56.4797 146.22 53.9308 147.062C48.5785 148.828 43.896 151.029 40.0129 153.601Z" fill="#FCFDFE"/>
<path d="M39.6124 112.672C26.7385 102.915 2.25297 106.805 2.00787 106.846L1.95215 106.512C2.20016 106.472 26.8278 102.557 39.8193 112.403L39.6124 112.672Z" fill="#FCFDFE"/>
<path d="M21.9275 85.3494C16.3701 68.034 27.3153 45.9956 27.4265 45.7751L27.7313 45.9268C27.6207 46.1462 16.7375 68.0636 22.2525 85.2466L21.9275 85.3494Z" fill="#FCFDFE"/>
</g>
</g>
<path d="M212.181 193.355L6.75195 191.577V196.836C6.75195 198.263 7.648 199.477 8.86146 199.693L66.9508 210.048C67.6401 210.171 68.3392 210.203 69.0349 210.145L209.949 198.339C211.207 198.233 212.181 197.016 212.181 195.55V193.355Z" fill="#97A6B7"/>
<path d="M146.051 184.83L9.01339 194.45C6.56117 194.622 4.56738 192.793 4.56738 190.364V93.0507C4.56738 90.6217 6.56117 88.6526 9.01339 88.6526H146.051C148.072 88.6526 149.705 90.4326 149.705 92.6283V180.598C149.705 182.794 148.072 184.688 146.051 184.83Z" fill="#97A6B7"/>
<path d="M148.236 184.83L11.198 194.45C8.74575 194.622 6.75195 192.793 6.75195 190.364V93.0509C6.75195 90.6219 8.74575 88.6528 11.198 88.6528H148.236C150.256 88.6528 151.89 90.4328 151.89 92.6286V180.598C151.89 182.794 150.256 184.689 148.236 184.83Z" fill="#97A6B7"/>
<path d="M143.967 178.629L16.3306 186.985C14.335 187.115 12.7134 185.614 12.7134 183.631V98.4332C12.7134 96.4503 14.335 94.8361 16.3306 94.8279L143.967 94.3032C145.634 94.2964 146.982 95.755 146.982 97.5611V175.161C146.982 176.967 145.634 178.52 143.967 178.629Z" fill="white"/>
<path d="M84.5575 91.3142C84.5575 92.2184 83.8521 92.9535 82.9811 92.9561C82.1091 92.9588 81.4014 92.2262 81.4014 91.32C81.4014 90.4138 82.1091 89.6786 82.9811 89.678C83.8521 89.6774 84.5575 90.4099 84.5575 91.3142Z" fill="white"/>
<path opacity="0.48" d="M115.219 158.141C104.654 152.494 96.3476 159.649 88.3311 152.59C83.4709 148.31 85.857 145.119 79.8767 138.723C73.253 131.64 68.9406 134.021 62.2839 127.646C53.8669 119.585 58.0766 113.313 50.8264 107.526C42.0309 100.504 32.5455 107.003 24.1728 100.269C20.5616 97.3653 18.5802 93.1432 17.5455 88.6528H9.35328C7.91772 88.6528 6.75195 89.8085 6.75195 91.2343V192.108C6.75195 193.534 7.9178 194.607 9.35328 194.506L149.018 184.659C149.703 184.61 150.311 184.213 150.701 183.636C140.477 183.266 134.196 179.862 130.181 176.342C122.326 169.457 123.689 162.667 115.219 158.141Z" fill="white"/>
<path d="M144.817 184.394L6.75195 194.52L66.9508 205.251C67.6401 205.374 68.3392 205.406 69.0349 205.348L212.181 193.355L147.013 184.463C146.284 184.364 145.549 184.34 144.817 184.394Z" fill="#D8DEE8"/>
<path opacity="0.3" d="M26.8989 194.775L141.842 186.219L177.416 191.034L63.4629 200.18L26.8989 194.775Z" fill="#D8DEE8"/>
<path d="M143.62 118.528L15.9697 120.46V97.4119H143.62V118.528Z" fill="#D8DEE8"/>
<path d="M103.143 159.639L22.2705 163.146V124.474L103.143 123.03V159.639Z" fill="#D8DEE8"/>
<path d="M138.289 133.117L107.868 133.893V122.946L138.289 122.403V133.117Z" fill="#D8DEE8"/>
<path d="M138.289 158.115L107.868 159.434V137.769L138.289 136.911V158.115Z" fill="#D8DEE8"/>
<path d="M138.289 163.026L22.2705 168.463V177.648L138.289 171.508V163.026Z" fill="#D8DEE8"/>
<path d="M60.3448 194.24C62.4564 196.992 61.9054 201.196 59.1117 203.616C56.313 206.041 52.3086 205.77 50.1898 203.008C48.0709 200.246 48.6338 196.031 51.4396 193.616C54.2404 191.206 58.2329 191.487 60.3448 194.24ZM52.3744 201.122C53.583 202.697 55.8677 202.853 57.4656 201.471C59.0621 200.09 59.3782 197.688 58.1718 196.116C56.9653 194.543 54.6845 194.384 53.0856 195.762C51.4854 197.141 51.1655 199.546 52.3744 201.122Z" fill="url(#paint6_linear_382_23940)"/>
<path d="M46.7392 165.554C48.8479 168.303 48.2873 172.481 45.4848 174.871C42.6769 177.267 38.6677 176.975 36.5517 174.217C34.4361 171.46 35.0087 167.272 37.8237 164.886C40.6333 162.504 44.6306 162.806 46.7392 165.554ZM38.7431 172.354C39.9503 173.927 42.2377 174.095 43.8411 172.729C45.4424 171.365 45.7641 168.979 44.5593 167.408C43.3546 165.838 41.0711 165.667 39.4675 167.028C37.8617 168.391 37.5362 170.781 38.7431 172.354Z" fill="url(#paint7_linear_382_23940)"/>
<path d="M11.6356 156.061C13.7561 158.825 13.1658 163.019 10.3151 165.414C7.45874 167.814 3.40054 167.513 1.27284 164.74C-0.854778 161.967 -0.252369 157.763 2.61118 155.373C5.46907 152.987 9.51505 153.297 11.6356 156.061ZM3.50195 162.873C4.71587 164.455 7.03119 164.628 8.66226 163.26C10.2912 161.893 10.6298 159.497 9.41814 157.918C8.20674 156.339 5.89524 156.163 4.26395 157.527C2.63059 158.892 2.28812 161.291 3.50195 162.873Z" fill="url(#paint8_linear_382_23940)"/>
<path d="M40.5156 128.083C42.6146 130.819 42.0517 134.95 39.2562 137.295C36.4551 139.645 32.4594 139.327 30.3532 136.582C28.2469 133.836 28.8215 129.696 31.6297 127.355C34.4322 125.019 38.4162 125.347 40.5156 128.083ZM32.5392 134.753C33.7407 136.32 36.0206 136.503 37.6199 135.162C39.2173 133.824 39.5401 131.465 38.3409 129.902C37.1415 128.338 34.8656 128.152 33.2659 129.487C31.6643 130.824 31.3376 133.187 32.5392 134.753Z" fill="url(#paint9_linear_382_23940)"/>
<path d="M85.4413 150.652L87.0658 152.769L69.7457 167.622L58.3831 195.245L55.8887 194.282L67.5544 165.97L85.4413 150.652Z" fill="url(#paint10_linear_382_23940)"/>
<path d="M75.8007 138.088L77.4252 140.205L45.9979 166.937L44.3564 164.798L75.8007 138.088Z" fill="url(#paint11_linear_382_23940)"/>
<path d="M66.1618 125.523L67.7863 127.641L47.1035 145.091L22.7194 148.538L11.3518 158.065L9.70117 155.914L21.7235 145.852L46.1077 142.42L66.1618 125.523Z" fill="url(#paint12_linear_382_23940)"/>
<path d="M56.5218 112.958L58.1462 115.076L39.8941 130.35L38.2598 128.22L56.5218 112.958Z" fill="url(#paint13_linear_382_23940)"/>
<path d="M155.922 11.7356C153.914 9.1184 154.366 5.26359 156.926 3.14552C159.482 1.03146 163.186 1.4368 165.188 4.04569C167.19 6.65489 166.747 10.501 164.198 12.6235C161.644 14.75 157.93 14.3531 155.922 11.7356ZM163.205 5.6914C162.061 4.20103 159.945 3.97061 158.487 5.17902C157.026 6.38879 156.769 8.58856 157.914 10.0816C159.06 11.575 161.18 11.8025 162.638 10.59C164.095 9.37903 164.348 7.182 163.205 5.6914Z" fill="url(#paint14_linear_382_23940)"/>
<path d="M169.451 38.7457C167.44 36.1247 167.884 32.2458 170.435 30.1022C172.983 27.9621 176.682 28.3494 178.687 30.9621C180.691 33.5746 180.258 37.4448 177.717 39.5932C175.172 41.7452 171.462 41.3665 169.451 38.7457ZM176.71 32.6279C175.565 31.1352 173.452 30.9151 171.997 32.1385C170.542 33.3627 170.29 35.5761 171.438 37.0716C172.585 38.5666 174.701 38.7839 176.154 37.5569C177.607 36.3308 177.855 34.1203 176.71 32.6279Z" fill="url(#paint15_linear_382_23940)"/>
<path d="M201.882 48.3978C199.882 45.7905 200.3 41.9249 202.81 39.7842C205.316 37.6467 208.973 38.0251 210.967 40.6242C212.961 43.2233 212.553 47.0802 210.054 49.2258C207.55 51.3749 203.883 51.0052 201.882 48.3978ZM209.023 42.2879C207.883 40.803 205.794 40.588 204.364 41.8098C202.932 43.0325 202.695 45.2383 203.836 46.7259C204.977 48.2135 207.07 48.4257 208.499 47.2002C209.928 45.9758 210.162 43.7728 209.023 42.2879Z" fill="url(#paint16_linear_382_23940)"/>
<path d="M176.003 74.2189C173.984 71.5868 174.424 67.6657 176.981 65.4815C179.534 63.301 183.245 63.6645 185.258 66.2882C187.271 68.9122 186.841 72.8244 184.294 75.0135C181.744 77.2061 178.023 76.8514 176.003 74.2189ZM183.277 67.9854C182.127 66.4867 180.007 66.2802 178.55 67.5266C177.092 68.774 176.842 71.0115 177.994 72.513C179.146 74.015 181.269 74.2185 182.725 72.9685C184.18 71.7193 184.427 69.4847 183.277 67.9854Z" fill="url(#paint17_linear_382_23940)"/>
<path d="M133.078 51.9455L131.499 49.8861L147.863 36.2105L158.119 10.8354L160.45 11.8125L149.954 37.8233L133.078 51.9455Z" fill="url(#paint18_linear_382_23940)"/>
<path d="M142.454 64.1662L140.875 62.1068L170.111 37.4739L171.675 39.5128L142.454 64.1662Z" fill="url(#paint19_linear_382_23940)"/>
<path d="M151.829 76.3865L150.249 74.3272L169.501 57.9739L191.985 55.1796L202.081 46.5474L203.637 48.5755L192.967 57.7112L170.483 60.5191L151.829 76.3865Z" fill="url(#paint20_linear_382_23940)"/>
<path d="M161.204 88.6072L159.625 86.5478L176.533 72.0681L178.104 74.1157L161.204 88.6072Z" fill="url(#paint21_linear_382_23940)"/>
<path d="M166.731 102.2C166.731 135.782 140.296 162.2 106.508 161.169C71.3459 160.096 41.7729 129.93 41.7729 93.8317C41.7729 57.733 71.3458 31.528 106.508 35.165C140.296 38.6597 166.731 68.6177 166.731 102.2Z" fill="url(#paint22_linear_382_23940)"/>
<path d="M175.861 99.3042C175.861 132.886 149.425 159.304 115.638 158.273C80.4754 157.201 50.9023 127.035 50.9023 90.936C50.9023 54.8372 80.4754 28.6323 115.638 32.2692C149.425 35.7639 175.861 65.722 175.861 99.3042Z" fill="url(#paint23_linear_382_23940)"/>
<path d="M173.208 99.1266C173.208 131.23 147.914 156.441 115.637 155.403C82.1077 154.325 53.9561 125.536 53.9561 91.1406C53.9561 56.745 82.1077 31.727 115.637 35.1393C147.914 38.4242 173.208 67.0233 173.208 99.1266Z" fill="url(#paint24_linear_382_23940)"/>
<path d="M171.308 98.9996C171.308 130.044 146.833 154.394 115.637 153.353C83.2713 152.274 56.1304 124.469 56.1304 91.2864C56.1304 58.1037 83.2713 33.9339 115.637 37.1893C146.833 40.3273 171.308 67.9554 171.308 98.9996Z" fill="url(#paint25_linear_382_23940)"/>
<path d="M136.229 98.2365C134.505 96.1923 131.828 94.7067 128.177 93.7792C129.855 93.1446 131.284 92.3933 132.47 91.5253C133.652 90.6601 134.617 89.7111 135.368 88.6767C136.117 87.6451 136.664 86.5346 137.013 85.3443C137.361 84.1555 137.535 82.9192 137.535 81.6344C137.535 79.2749 137.156 77.1296 136.397 75.1951C135.636 73.2571 134.417 71.5897 132.735 70.1925C131.045 68.7889 128.851 67.6664 126.146 66.8244C125.245 66.5442 124.272 66.3057 123.239 66.1014V56.7111L116.017 56.3507V65.3204L109.912 65.0877V56.046L102.43 55.6726V64.8025L94.3897 64.4961L91.4067 64.3824V69.3849L94.3897 69.4795V120.154L91.4067 120.253V125.256L94.3897 125.138L102.43 124.821V132.932L109.912 132.558V124.526L116.017 124.285V132.254L123.239 131.893V123.587C124.568 123.314 125.821 122.96 126.991 122.516C129.588 121.531 131.758 120.223 133.508 118.594C135.249 116.973 136.565 115.101 137.461 112.978C138.354 110.861 138.8 108.587 138.8 106.153C138.8 102.908 137.945 100.271 136.229 98.2365ZM124.722 83.0149C124.722 84.4289 124.51 85.5998 124.085 86.529C123.66 87.4598 123.041 88.1891 122.226 88.7174C121.41 89.2475 120.417 89.6162 119.245 89.8237C118.069 90.0325 116.745 90.1324 115.272 90.1242L108.248 90.0857V75.3677L116.141 75.5622C117.637 75.5991 118.925 75.7518 120.007 76.0198C121.085 76.287 121.974 76.7097 122.673 77.2877C123.37 77.8645 123.885 78.6168 124.22 79.5444C124.555 80.4714 124.722 81.6285 124.722 83.0149ZM125.839 108.838C125.608 109.748 125.185 110.57 124.568 111.303C123.95 112.038 123.092 112.647 121.993 113.128C120.891 113.612 119.466 113.876 117.716 113.921L108.248 114.166V99.3254L117.637 99.264C119.309 99.253 120.69 99.4049 121.78 99.7189C122.866 100.032 123.737 100.48 124.394 101.061C125.05 101.642 125.512 102.357 125.781 103.206C126.05 104.055 126.185 105.012 126.185 106.076C126.185 107.008 126.07 107.928 125.839 108.838Z" fill="url(#paint26_linear_382_23940)"/>
<path opacity="0.3" d="M105.562 106.601C107.443 88.1478 124.516 80.3357 122.288 63.3613C120.915 52.8993 112.932 44.0824 104.027 37.1982C77.0168 40.0121 56.1304 62.2285 56.1304 91.2861C56.1304 124.469 83.2713 152.274 115.637 153.353C118.779 153.458 121.848 153.296 124.832 152.907C111.979 140.202 103.946 122.455 105.562 106.601Z" fill="url(#paint27_linear_382_23940)"/>
<path d="M189.806 204.94C189.913 204.356 191.811 203.828 192.751 204.61C193.218 204.998 193.539 205.785 193.269 206.141C193.171 206.27 193.573 206.497 193.188 206.502C191.909 206.517 189.7 205.52 189.806 204.94Z" fill="url(#paint28_linear_382_23940)"/>
<path d="M191.882 204.943L193.851 205.04C193.169 203.808 193.989 200.458 193.989 200.458L191.863 200.52C191.863 200.52 191.915 201.492 192.045 202.937C192.089 203.432 192.007 204.177 191.882 204.943Z" fill="url(#paint29_linear_382_23940)"/>
<path d="M191.622 204.914C191.622 204.914 193.972 204.376 194.227 204.839C194.481 205.302 194.678 206.542 193.187 206.502C191.696 206.462 191.49 205.306 191.622 204.914Z" fill="url(#paint30_linear_382_23940)"/>
<path d="M164.881 209.175C165.069 208.612 167.023 208.353 167.843 209.258C168.25 209.707 168.458 210.531 168.14 210.845C168.025 210.96 168.391 211.241 168.009 211.192C166.74 211.029 164.694 209.735 164.881 209.175Z" fill="url(#paint31_linear_382_23940)"/>
<path d="M167.189 209.718L169.124 210.095C168.627 208.778 169.923 205.579 169.923 205.579L167.809 205.337C167.809 205.337 167.721 206.307 167.64 207.756C167.613 208.252 167.424 208.978 167.189 209.718Z" fill="url(#paint32_linear_382_23940)"/>
<path d="M166.684 209.402C166.684 209.402 169.087 209.196 169.273 209.69C169.46 210.184 169.48 211.439 168.01 211.192C166.539 210.945 166.497 209.772 166.684 209.402Z" fill="url(#paint33_linear_382_23940)"/>
<path d="M184.457 142.075C184.984 151.024 185.721 160.331 186.715 169.962C187.866 181.119 189.265 191.78 190.834 201.912C192.767 202.57 194.554 201.912 194.554 201.912C194.554 201.912 196.814 198.234 198.539 188.459C199.646 182.187 199.723 182.266 199.735 181.172C199.798 175.652 197.848 174.054 197.477 169.121C197.133 164.556 198.595 163.189 199.469 158.05C200.141 154.099 200.393 148.34 198.274 140.814C193.668 141.234 189.062 141.655 184.457 142.075Z" fill="url(#paint34_linear_382_23940)"/>
<path opacity="0.3" d="M184.457 142.075C184.984 151.025 185.721 160.331 186.715 169.962C187.866 181.119 189.265 191.78 190.834 201.912C192.767 202.57 194.554 201.912 194.554 201.912C194.529 200.974 194.463 199.561 194.266 197.854C193.743 193.326 192.909 192.038 192.824 189.259C192.715 185.705 194.01 185.596 194.266 182.097C194.663 176.673 191.665 175.386 191.382 170.637C191.083 165.619 194.246 163.967 196.669 157.745C198.1 154.071 199.37 148.556 198.274 140.814C193.668 141.235 189.062 141.655 184.457 142.075Z" fill="url(#paint35_linear_382_23940)"/>
<path d="M174.758 141.795C172.111 150.653 169.546 161.655 168.116 174.445C166.728 186.859 166.753 197.883 167.319 206.956C168.16 207.19 169.001 207.423 169.843 207.657C174.735 202.572 176.482 197.898 177.15 194.484C178.137 189.435 176.649 187.723 177.947 182.013C178.245 180.699 178.665 179.288 183.527 169.821C188.167 160.785 189.118 159.473 189.904 156.228C191.026 151.597 190.73 147.489 190.302 144.737C185.121 143.757 179.94 142.776 174.758 141.795Z" fill="url(#paint36_linear_382_23940)"/>
<path d="M153.895 122.65L145.592 103.331C145.177 102.365 145.734 101.261 146.761 101.014L161.97 97.3446C162.792 97.1463 163.636 97.5749 163.956 98.3527L171.593 116.921C171.973 117.845 171.472 118.895 170.51 119.187L155.968 123.607C155.132 123.861 154.238 123.448 153.895 122.65Z" fill="#26264F"/>
<path d="M154.27 121.721L146.514 103.675C146.127 102.774 146.647 101.742 147.606 101.511L161.812 98.0839C162.58 97.8986 163.368 98.2989 163.667 99.0254L170.8 116.369C171.156 117.233 170.688 118.213 169.789 118.486L156.206 122.615C155.425 122.852 154.59 122.466 154.27 121.721Z" fill="url(#paint37_linear_382_23940)"/>
<path d="M149.484 116.416L149.234 114.14L147.914 111.639C147.734 111.299 147.64 110.92 147.64 110.535V108.052L149.234 111.715C149.234 111.715 150.281 110.774 150.679 110.577C151.078 110.379 151.028 111.17 150.729 111.467C150.43 111.764 150.879 114.189 150.58 114.437L150.679 115.921L149.484 116.416Z" fill="url(#paint38_linear_382_23940)"/>
<path d="M162.137 101.916C163.377 98.9046 166.038 97.1727 167.418 96.2745C170.683 94.1494 172.774 94.5373 180.272 93.4041C190.265 91.8938 191.461 90.4626 194.82 91.6225C199.231 93.146 201.536 97.124 202.592 98.9469C207.915 108.137 201.691 112.808 203.289 131.115C203.942 138.591 205.615 145.088 201.595 148.931C200.749 149.74 199.802 150.163 197.908 151.009C190.399 154.366 183.666 153.787 179.574 153.385C175.072 152.942 172.797 152.688 171.603 151.108C169.696 148.584 171.659 145.376 172.002 139.825C172.247 135.839 171.335 132.68 169.511 126.364C165.269 111.679 159.762 107.686 162.137 101.916Z" fill="url(#paint39_linear_382_23940)"/>
<path d="M178.864 87.9868C178.409 86.3767 179.205 84.8858 179.38 84.5645C180.114 83.2194 180.302 83.0357 180.652 82.8028L181.139 82.5045C181.139 82.5045 181.167 82.4932 181.197 82.4827C181.509 82.3722 182.574 82.3401 182.79 82.3859C183.479 82.532 184.213 85.3205 184.003 89.2627C184.032 89.413 184.059 89.5645 184.086 89.7173C184.194 90.3399 184.281 90.9501 184.347 91.5468C184.411 92.1175 185.226 92.1044 185.803 92.0678C188.144 91.9193 189.29 92.1173 189.39 92.4637C189.576 93.1128 186.799 95.2351 183.37 95.7125C178.767 95.7465 175.023 95.2597 175.425 94.5398C175.604 94.2201 179.17 93.2944 180.173 92.3771C181.091 91.5369 181.016 90.6698 181.092 90.0488C180.814 89.9053 179.199 89.1729 178.864 87.9868Z" fill="url(#paint40_linear_382_23940)"/>
<path d="M179.711 81.3848C179.715 82.6061 180.294 83.9105 180.59 84.1201C180.628 84.1472 180.842 84.3155 181.035 84.6033C181.061 84.6425 181.084 84.6884 181.105 84.7477C181.374 85.5173 180.142 86.423 180.38 86.7677C180.553 87.0176 181.39 86.6833 181.49 86.8992C181.583 87.1023 180.887 87.523 180.994 87.7664C181.074 87.9501 181.503 87.782 181.773 88.0634C181.907 88.2036 181.868 88.3147 182.01 88.7432C182.091 88.9856 182.204 89.2507 182.291 89.3982C182.716 90.1153 183.92 90.3772 184.151 90.0903C184.216 90.0102 184.16 89.9431 184.226 89.6747C184.226 89.6747 184.287 89.426 184.462 89.1384C184.711 88.7275 185.311 88.4336 185.918 87.9999C187.041 87.1967 187.346 86.512 187.438 86.2806C187.47 86.1983 187.49 86.1361 187.505 86.0912C187.797 85.191 187.798 83.8687 187.391 83.0556C186.708 81.6933 185.169 82.3401 183.908 80.9903C182.454 79.4331 183.32 77.3046 182.531 77.0695C181.662 76.8103 179.703 79.1265 179.711 81.3848Z" fill="#26264F"/>
<path d="M180.822 86.4806C181.124 86.0693 181.653 86.4558 181.656 86.988C181.66 87.5201 181.14 88.0734 180.637 87.9683C180.133 87.8632 180.417 87.0343 180.822 86.4806Z" fill="url(#paint41_linear_382_23940)"/>
<path d="M181.066 85.5901L180.367 86.4935C180.367 86.4935 179.613 87.6002 179.173 86.9939C178.814 86.4985 178.721 86.5096 178.699 86.5303C178.695 86.5342 178.694 86.5401 178.693 86.5398C178.686 86.5382 178.745 86.2933 178.798 86.0779C178.612 86.3433 178.356 86.7738 178.2 87.353C178.05 87.9156 177.888 88.518 178.207 89.0967C178.226 89.1301 178.578 89.746 179.235 89.8949C179.235 89.8949 179.494 89.9535 180.586 89.7629C180.586 89.7629 179.392 88.9024 179.374 88.698C179.324 88.1422 180.1 87.8418 180.677 86.7023C180.899 86.2629 181.008 85.8644 181.066 85.5901Z" fill="#26264F"/>
<path opacity="0.3" d="M183.46 148.138C182.136 145.519 185.381 142.036 183.261 138.043C181.46 134.651 178.189 135.411 176.684 132.302C174.868 128.547 178.819 125.741 178.677 120.028C178.508 113.2 172.593 106.364 169.112 106.964C166.859 107.351 166.57 110.689 164.985 114.343C166.388 117.398 168.026 121.224 169.51 126.363C171.335 132.68 172.247 135.838 172.001 139.824C171.659 145.376 169.696 148.584 171.603 151.108C172.797 152.688 175.072 152.941 179.574 153.384C183.666 153.786 190.399 154.365 197.908 151.009C198.859 150.584 199.57 150.266 200.151 149.952C188.418 151.702 184.511 150.216 183.46 148.138Z" fill="url(#paint42_linear_382_23940)"/>
<path d="M149.034 115.971C149.765 115.657 150.496 115.344 151.226 115.031C152.461 116.285 154.037 117.505 155.362 117.109C157.337 116.519 156.843 112.909 159.248 106.568C161.972 99.3828 165.064 97.536 166.621 96.8681C167.491 96.4951 168.091 96.2475 168.813 96.4227C172.134 97.2292 173.233 105.826 172.301 112.259C171.776 115.883 170.746 122.99 164.877 126.363C164.044 126.843 159.455 129.48 154.913 127.403C151.033 125.628 148.636 121.074 149.034 115.971Z" fill="url(#paint43_linear_382_23940)"/>
</g>
<defs>
<linearGradient id="paint0_linear_382_23940" x1="65.9112" y1="15.1317" x2="190.975" y2="69.5832" gradientUnits="userSpaceOnUse">
<stop stop-color="#FF9085"/>
<stop offset="1" stop-color="#FB6FBB"/>
</linearGradient>
<linearGradient id="paint1_linear_382_23940" x1="81.3455" y1="-11.9596" x2="200.103" y2="39.7462" gradientUnits="userSpaceOnUse">
<stop stop-color="#FF9085"/>
<stop offset="1" stop-color="#FB6FBB"/>
</linearGradient>
<linearGradient id="paint2_linear_382_23940" x1="123.111" y1="52.8424" x2="216.701" y2="93.5908" gradientUnits="userSpaceOnUse">
<stop offset="0.0036" stop-color="#E38DDD"/>
<stop offset="1" stop-color="#9571F6"/>
</linearGradient>
<linearGradient id="paint3_linear_382_23940" x1="133.863" y1="30.9907" x2="224.605" y2="70.4986" gradientUnits="userSpaceOnUse">
<stop offset="0.0036" stop-color="#E38DDD"/>
<stop offset="1" stop-color="#9571F6"/>
</linearGradient>
<linearGradient id="paint4_linear_382_23940" x1="139.041" y1="198.334" x2="-23.398" y2="-84.4325" gradientUnits="userSpaceOnUse">
<stop stop-color="#AA80F9"/>
<stop offset="0.9964" stop-color="#6165D7"/>
</linearGradient>
<linearGradient id="paint5_linear_382_23940" x1="17.0392" y1="66.7383" x2="101.911" y2="207.396" gradientUnits="userSpaceOnUse">
<stop offset="0.0036" stop-color="#E38DDD"/>
<stop offset="1" stop-color="#9571F6"/>
</linearGradient>
<linearGradient id="paint6_linear_382_23940" x1="80.5589" y1="168.091" x2="186.998" y2="37.8643" gradientUnits="userSpaceOnUse">
<stop stop-color="#FF9085"/>
<stop offset="1" stop-color="#FB6FBB"/>
</linearGradient>
<linearGradient id="paint7_linear_382_23940" x1="58.2419" y1="149.85" x2="164.682" y2="19.6236" gradientUnits="userSpaceOnUse">
<stop stop-color="#FF9085"/>
<stop offset="1" stop-color="#FB6FBB"/>
</linearGradient>
<linearGradient id="paint8_linear_382_23940" x1="32.5726" y1="128.87" x2="139.012" y2="-1.35635" gradientUnits="userSpaceOnUse">
<stop stop-color="#FF9085"/>
<stop offset="1" stop-color="#FB6FBB"/>
</linearGradient>
<linearGradient id="paint9_linear_382_23940" x1="35.9895" y1="131.662" x2="142.429" y2="1.43556" gradientUnits="userSpaceOnUse">
<stop stop-color="#FF9085"/>
<stop offset="1" stop-color="#FB6FBB"/>
</linearGradient>
<linearGradient id="paint10_linear_382_23940" x1="76.2523" y1="164.571" x2="182.692" y2="34.3444" gradientUnits="userSpaceOnUse">
<stop stop-color="#FF9085"/>
<stop offset="1" stop-color="#FB6FBB"/>
</linearGradient>
<linearGradient id="paint11_linear_382_23940" x1="61.1302" y1="152.212" x2="167.569" y2="21.9861" gradientUnits="userSpaceOnUse">
<stop stop-color="#FF9085"/>
<stop offset="1" stop-color="#FB6FBB"/>
</linearGradient>
<linearGradient id="paint12_linear_382_23940" x1="42.6274" y1="137.089" x2="149.067" y2="6.86217" gradientUnits="userSpaceOnUse">
<stop stop-color="#FF9085"/>
<stop offset="1" stop-color="#FB6FBB"/>
</linearGradient>
<linearGradient id="paint13_linear_382_23940" x1="38.3253" y1="133.572" x2="144.765" y2="3.34592" gradientUnits="userSpaceOnUse">
<stop stop-color="#FF9085"/>
<stop offset="1" stop-color="#FB6FBB"/>
</linearGradient>
<linearGradient id="paint14_linear_382_23940" x1="49.1316" y1="142.405" x2="155.571" y2="12.1784" gradientUnits="userSpaceOnUse">
<stop stop-color="#FF9085"/>
<stop offset="1" stop-color="#FB6FBB"/>
</linearGradient>
<linearGradient id="paint15_linear_382_23940" x1="70.5082" y1="159.875" x2="176.947" y2="29.6494" gradientUnits="userSpaceOnUse">
<stop stop-color="#FF9085"/>
<stop offset="1" stop-color="#FB6FBB"/>
</linearGradient>
<linearGradient id="paint16_linear_382_23940" x1="94.571" y1="179.545" x2="201.01" y2="49.3181" gradientUnits="userSpaceOnUse">
<stop stop-color="#FF9085"/>
<stop offset="1" stop-color="#FB6FBB"/>
</linearGradient>
<linearGradient id="paint17_linear_382_23940" x1="91.9057" y1="177.365" x2="198.345" y2="47.1388" gradientUnits="userSpaceOnUse">
<stop stop-color="#FF9085"/>
<stop offset="1" stop-color="#FB6FBB"/>
</linearGradient>
<linearGradient id="paint18_linear_382_23940" x1="53.3645" y1="145.864" x2="159.804" y2="15.6377" gradientUnits="userSpaceOnUse">
<stop stop-color="#FF9085"/>
<stop offset="1" stop-color="#FB6FBB"/>
</linearGradient>
<linearGradient id="paint19_linear_382_23940" x1="67.7786" y1="157.646" x2="174.218" y2="27.4192" gradientUnits="userSpaceOnUse">
<stop stop-color="#FF9085"/>
<stop offset="1" stop-color="#FB6FBB"/>
</linearGradient>
<linearGradient id="paint20_linear_382_23940" x1="85.3583" y1="172.015" x2="191.798" y2="41.7889" gradientUnits="userSpaceOnUse">
<stop stop-color="#FF9085"/>
<stop offset="1" stop-color="#FB6FBB"/>
</linearGradient>
<linearGradient id="paint21_linear_382_23940" x1="89.8665" y1="175.7" x2="196.306" y2="45.4737" gradientUnits="userSpaceOnUse">
<stop stop-color="#FF9085"/>
<stop offset="1" stop-color="#FB6FBB"/>
</linearGradient>
<linearGradient id="paint22_linear_382_23940" x1="82.8371" y1="104.827" x2="10.054" y2="128.342" gradientUnits="userSpaceOnUse">
<stop stop-color="#FCB148"/>
<stop offset="0.0521" stop-color="#FDBA46"/>
<stop offset="0.1424" stop-color="#FFC244"/>
<stop offset="0.3183" stop-color="#FFC444"/>
<stop offset="0.4849" stop-color="#FDB946"/>
<stop offset="0.7754" stop-color="#F99C4D"/>
<stop offset="0.8658" stop-color="#F8924F"/>
<stop offset="1" stop-color="#F8924F"/>
</linearGradient>
<linearGradient id="paint23_linear_382_23940" x1="141.788" y1="32.7703" x2="77.4482" y2="175.668" gradientUnits="userSpaceOnUse">
<stop stop-color="#FFDB44"/>
<stop offset="1" stop-color="#FEEF06"/>
</linearGradient>
<linearGradient id="paint24_linear_382_23940" x1="129.82" y1="183.313" x2="117.428" y2="115.163" gradientUnits="userSpaceOnUse">
<stop stop-color="#FCB148"/>
<stop offset="0.0521" stop-color="#FDBA46"/>
<stop offset="0.1424" stop-color="#FFC244"/>
<stop offset="0.3183" stop-color="#FFC444"/>
<stop offset="0.4849" stop-color="#FDB946"/>
<stop offset="0.7754" stop-color="#F99C4D"/>
<stop offset="0.8658" stop-color="#F8924F"/>
<stop offset="1" stop-color="#F8924F"/>
</linearGradient>
<linearGradient id="paint25_linear_382_23940" x1="103.204" y1="73.0529" x2="154.373" y2="182.404" gradientUnits="userSpaceOnUse">
<stop stop-color="#FCB148"/>
<stop offset="0.0521" stop-color="#FDBA46"/>
<stop offset="0.1424" stop-color="#FFC244"/>
<stop offset="0.3183" stop-color="#FFC444"/>
<stop offset="0.4849" stop-color="#FDB946"/>
<stop offset="0.7754" stop-color="#F99C4D"/>
<stop offset="0.8658" stop-color="#F8924F"/>
<stop offset="1" stop-color="#F8924F"/>
</linearGradient>
<linearGradient id="paint26_linear_382_23940" x1="91.4068" y1="94.302" x2="138.8" y2="94.302" gradientUnits="userSpaceOnUse">
<stop stop-color="#FFDB44"/>
<stop offset="1" stop-color="#FEEF06"/>
</linearGradient>
<linearGradient id="paint27_linear_382_23940" x1="87.9845" y1="80.1121" x2="139.051" y2="189.243" gradientUnits="userSpaceOnUse">
<stop stop-color="#FCB148"/>
<stop offset="0.0521" stop-color="#FDBA46"/>
<stop offset="0.1424" stop-color="#FFC244"/>
<stop offset="0.3183" stop-color="#FFC444"/>
<stop offset="0.4849" stop-color="#FDB946"/>
<stop offset="0.7754" stop-color="#F99C4D"/>
<stop offset="0.8658" stop-color="#F8924F"/>
<stop offset="1" stop-color="#F8924F"/>
</linearGradient>
<linearGradient id="paint28_linear_382_23940" x1="188.752" y1="203.255" x2="192.915" y2="206.04" gradientUnits="userSpaceOnUse">
<stop stop-color="#444B8C"/>
<stop offset="0.9964" stop-color="#26264F"/>
</linearGradient>
<linearGradient id="paint29_linear_382_23940" x1="192.695" y1="206.002" x2="193.016" y2="199.521" gradientUnits="userSpaceOnUse">
<stop stop-color="#FFC444"/>
<stop offset="0.9964" stop-color="#F36F56"/>
</linearGradient>
<linearGradient id="paint30_linear_382_23940" x1="189.065" y1="202.786" x2="193.228" y2="205.57" gradientUnits="userSpaceOnUse">
<stop stop-color="#444B8C"/>
<stop offset="0.9964" stop-color="#26264F"/>
</linearGradient>
<linearGradient id="paint31_linear_382_23940" x1="164.074" y1="207.36" x2="167.802" y2="210.698" gradientUnits="userSpaceOnUse">
<stop stop-color="#444B8C"/>
<stop offset="0.9964" stop-color="#26264F"/>
</linearGradient>
<linearGradient id="paint32_linear_382_23940" x1="167.841" y1="210.882" x2="169.083" y2="204.511" gradientUnits="userSpaceOnUse">
<stop stop-color="#FFC444"/>
<stop offset="0.9964" stop-color="#F36F56"/>
</linearGradient>
<linearGradient id="paint33_linear_382_23940" x1="164.452" y1="206.939" x2="168.18" y2="210.277" gradientUnits="userSpaceOnUse">
<stop stop-color="#444B8C"/>
<stop offset="0.9964" stop-color="#26264F"/>
</linearGradient>
<linearGradient id="paint34_linear_382_23940" x1="184.457" y1="171.509" x2="199.95" y2="171.509" gradientUnits="userSpaceOnUse">
<stop stop-color="#311944"/>
<stop offset="1" stop-color="#6B3976"/>
</linearGradient>
<linearGradient id="paint35_linear_382_23940" x1="184.457" y1="171.509" x2="198.688" y2="171.509" gradientUnits="userSpaceOnUse">
<stop stop-color="#311944"/>
<stop offset="1" stop-color="#6B3976"/>
</linearGradient>
<linearGradient id="paint36_linear_382_23940" x1="213.117" y1="182.042" x2="170.514" y2="174.303" gradientUnits="userSpaceOnUse">
<stop stop-color="#311944"/>
<stop offset="0.7407" stop-color="#5C3169"/>
<stop offset="1" stop-color="#6B3976"/>
</linearGradient>
<linearGradient id="paint37_linear_382_23940" x1="160.479" y1="110.896" x2="141.026" y2="103.947" gradientUnits="userSpaceOnUse">
<stop stop-color="#AA80F9"/>
<stop offset="0.9964" stop-color="#6165D7"/>
</linearGradient>
<linearGradient id="paint38_linear_382_23940" x1="148.102" y1="110.168" x2="162.377" y2="133.254" gradientUnits="userSpaceOnUse">
<stop stop-color="#FFC444"/>
<stop offset="0.9964" stop-color="#F36F56"/>
</linearGradient>
<linearGradient id="paint39_linear_382_23940" x1="209.799" y1="175.139" x2="191.21" y2="133.553" gradientUnits="userSpaceOnUse">
<stop stop-color="#FF9085"/>
<stop offset="1" stop-color="#FB6FBB"/>
</linearGradient>
<linearGradient id="paint40_linear_382_23940" x1="178.817" y1="85.4229" x2="189.316" y2="109.671" gradientUnits="userSpaceOnUse">
<stop stop-color="#FFC444"/>
<stop offset="0.9964" stop-color="#F36F56"/>
</linearGradient>
<linearGradient id="paint41_linear_382_23940" x1="178.023" y1="80.4549" x2="189.746" y2="107.529" gradientUnits="userSpaceOnUse">
<stop stop-color="#FFC444"/>
<stop offset="0.9964" stop-color="#F36F56"/>
</linearGradient>
<linearGradient id="paint42_linear_382_23940" x1="160.639" y1="118.745" x2="186.975" y2="144.061" gradientUnits="userSpaceOnUse">
<stop stop-color="#FF9085"/>
<stop offset="1" stop-color="#FB6FBB"/>
</linearGradient>
<linearGradient id="paint43_linear_382_23940" x1="193.213" y1="182.552" x2="174.624" y2="140.967" gradientUnits="userSpaceOnUse">
<stop stop-color="#FF9085"/>
<stop offset="1" stop-color="#FB6FBB"/>
</linearGradient>
</defs>
</svg>
