<svg width="18" height="16" viewBox="0 0 18 16" fill="none" xmlns="http://www.w3.org/2000/svg">
<path d="M8.77 16V15H15.385C15.5517 15 15.6957 14.9487 15.817 14.846C15.939 14.7433 16 14.6087 16 14.442V7.554C16 5.68067 15.3113 4.11634 13.934 2.861C12.556 1.605 10.9113 0.977002 9 0.977002C7.08867 0.977002 5.444 1.605 4.066 2.861C2.68867 4.11634 2 5.68067 2 7.554V13.231H1.5C1.09133 13.231 0.739 13.0927 0.443 12.816C0.147667 12.54 0 12.198 0 11.79V9.905C0 9.60633 0.0969999 9.34134 0.291 9.11C0.485667 8.878 0.722 8.68967 1 8.545L1.017 7.316C1.035 6.27267 1.26167 5.306 1.697 4.416C2.13233 3.526 2.71367 2.75167 3.441 2.093C4.16833 1.43434 5.00967 0.921002 5.965 0.553002C6.92033 0.185002 7.932 0.000668472 9 1.80505e-06C10.068 -0.000664862 11.079 0.183335 12.033 0.552002C12.987 0.920668 13.8247 1.43334 14.546 2.09C15.2673 2.74667 15.8457 3.52 16.281 4.41C16.7163 5.3 16.9503 6.26667 16.983 7.31L17 8.513C17.2653 8.63767 17.4983 8.80534 17.699 9.016C17.8997 9.226 18 9.47834 18 9.773V11.939C18 12.2337 17.8997 12.486 17.699 12.696C17.4983 12.906 17.2653 13.0733 17 13.198V14.442C17 14.8767 16.8427 15.245 16.528 15.547C16.2133 15.849 15.8323 16 15.385 16H8.77ZM6.385 9.539C6.17833 9.539 5.99833 9.46867 5.845 9.328C5.69167 9.188 5.615 9.01467 5.615 8.808C5.615 8.60133 5.69167 8.42467 5.845 8.278C5.99833 8.13134 6.17833 8.058 6.385 8.058C6.59167 8.058 6.77133 8.13134 6.924 8.278C7.07667 8.42467 7.15333 8.60133 7.154 8.808C7.15467 9.01467 7.078 9.188 6.924 9.328C6.77 9.468 6.59 9.538 6.384 9.538M11.616 9.538C11.4093 9.538 11.2293 9.468 11.076 9.328C10.9227 9.188 10.846 9.01467 10.846 8.808C10.846 8.60133 10.9227 8.42467 11.076 8.278C11.2293 8.13134 11.4093 8.058 11.616 8.058C11.8227 8.058 12.0023 8.13134 12.155 8.278C12.3077 8.42467 12.3843 8.60133 12.385 8.808C12.3857 9.01467 12.309 9.188 12.155 9.328C12.001 9.468 11.821 9.538 11.615 9.538M3.718 7.95C3.62733 6.45267 4.10967 5.17634 5.165 4.121C6.21967 3.06567 7.515 2.538 9.051 2.538C10.3417 2.538 11.4857 2.92567 12.483 3.701C13.4803 4.47634 14.089 5.49467 14.309 6.756C12.9843 6.73933 11.755 6.40133 10.621 5.742C9.487 5.08267 8.617 4.166 8.011 2.992C7.76967 4.146 7.268 5.15734 6.506 6.026C5.74333 6.89467 4.814 7.536 3.718 7.95Z" fill="white"/>
</svg>
