<svg width="13" height="12" viewBox="0 0 13 12" fill="none" xmlns="http://www.w3.org/2000/svg">
<path d="M4.76273 2.45213e-05C3.64591 -0.00595454 2.55864 1.08223 3.055 2.4335H1.18182C0.868381 2.4335 0.56778 2.55949 0.346147 2.78375C0.124513 3.00801 0 3.31217 0 3.62931V4.82513C0 4.9837 0.0622563 5.13578 0.173073 5.24791C0.28389 5.36004 0.43419 5.42303 0.590909 5.42303H5.90909V3.62931H7.09091V5.42303H12.4091C12.5658 5.42303 12.7161 5.36004 12.8269 5.24791C12.9377 5.13578 13 4.9837 13 4.82513V3.62931C13 3.31217 12.8755 3.00801 12.6539 2.78375C12.4322 2.55949 12.1316 2.4335 11.8182 2.4335H9.945C10.6364 0.478349 8.03636 -0.902814 6.83682 0.783282L6.5 1.23769L6.16318 0.771323C5.79091 0.239187 5.27682 0.00600358 4.76273 2.45213e-05ZM4.72727 1.23769C5.25318 1.23769 5.51909 1.88343 5.14682 2.26011C4.77455 2.63679 4.13636 2.36773 4.13636 1.8356C4.13636 1.67702 4.19862 1.52494 4.30944 1.41281C4.42025 1.30068 4.57055 1.23769 4.72727 1.23769ZM8.27273 1.23769C8.79864 1.23769 9.06455 1.88343 8.69227 2.26011C8.32 2.63679 7.68182 2.36773 7.68182 1.8356C7.68182 1.67702 7.74408 1.52494 7.85489 1.41281C7.96571 1.30068 8.11601 1.23769 8.27273 1.23769ZM0.590909 6.02094V10.8042C0.590909 11.1213 0.715422 11.4255 0.937056 11.6498C1.15869 11.874 1.45929 12 1.77273 12H11.2273C11.5407 12 11.8413 11.874 12.0629 11.6498C12.2846 11.4255 12.4091 11.1213 12.4091 10.8042V6.02094H7.09091V10.8042H5.90909V6.02094H0.590909Z" fill="white"/>
</svg>
